<svg width="1962" height="731" viewBox="0 0 1962 731" fill="none" xmlns="http://www.w3.org/2000/svg">
<g clip-path="url(#clip0_19_171)">
<path d="M1955.87 6.96002C1950.34 0.990024 1942.34 -1.32998 1934.47 0.760023L1456.07 127.9C1448.35 129.95 1442.59 135.8 1440.66 143.55C1438.72 151.3 1441.06 159.17 1446.9 164.61L1565.25 274.72L1547.68 390.27C1547.01 394.64 1549.14 398.76 1553.09 400.75C1554.56 401.49 1556.13 401.86 1557.67 401.86C1559.4 401.86 1561.09 401.39 1562.61 400.51H1562.63L1652.33 355.75L1774.24 469.18C1778.29 472.95 1783.54 474.97 1788.93 474.97C1790.67 474.97 1792.42 474.76 1794.14 474.33C1801.25 472.57 1806.93 467.4 1809.35 460.49L1960.41 28.77C1963.1 21.08 1961.4 12.93 1955.87 6.95002V6.96002ZM1555.79 395.39C1554.53 394.75 1553.29 393.31 1553.61 391.17L1570.57 279.66L1621.86 327.38L1560.43 394.67C1558.91 396.16 1557.04 396.02 1555.78 395.39H1555.79ZM1573.3 274.01L1870.55 83.17L1626.02 323.07L1573.3 274.02V274.01ZM1575.01 387.6L1626.25 331.47L1647.63 351.36L1575.01 387.6ZM1954.75 26.79L1803.7 458.48C1801.95 463.47 1797.85 467.21 1792.72 468.48C1787.59 469.75 1782.21 468.36 1778.34 464.76L1630.43 327.15L1895.57 67.02C1896.67 65.94 1896.77 64.21 1895.82 63.01C1894.86 61.81 1893.15 61.52 1891.85 62.36L1568.77 269.78L1450.99 160.2C1446.77 156.27 1445.08 150.59 1446.48 144.99C1447.88 139.39 1452.04 135.17 1457.61 133.69L1936.01 6.55002C1941.69 5.04002 1947.47 6.71002 1951.47 11.03C1955.47 15.35 1956.69 21.24 1954.75 26.79Z" fill="#383838"/>
<path d="M2.9998 731.01C2.6398 731.01 2.2798 730.95 1.9298 730.81C0.379804 730.22 -0.390195 728.48 0.199804 726.93C1.2998 724.05 2.4498 721.15 3.5998 718.3C4.2198 716.76 5.9698 716.03 7.5098 716.64C9.0498 717.26 9.7898 719.01 9.1698 720.55C8.0298 723.36 6.8998 726.23 5.8098 729.07C5.3498 730.26 4.2098 731 3.0098 731L2.9998 731.01ZM664.65 728.72C664.59 728.72 664.53 728.72 664.46 728.72C660.35 728.47 656.17 728.04 652.03 727.46C650.39 727.23 649.25 725.71 649.48 724.07C649.71 722.43 651.22 721.29 652.87 721.52C656.85 722.08 660.88 722.49 664.83 722.73C666.48 722.83 667.74 724.26 667.64 725.91C667.54 727.5 666.22 728.73 664.65 728.73V728.72ZM695.23 727.51C693.76 727.51 692.47 726.43 692.26 724.93C692.03 723.29 693.17 721.77 694.81 721.54C698.73 720.99 702.71 720.27 706.64 719.41C708.26 719.06 709.86 720.08 710.21 721.7C710.56 723.32 709.54 724.92 707.92 725.27C703.84 726.16 699.71 726.91 695.63 727.48C695.49 727.5 695.35 727.51 695.21 727.51H695.23ZM622.65 720.5C622.34 720.5 622.03 720.45 621.72 720.35C617.84 719.08 613.9 717.65 610.02 716.11C608.48 715.5 607.73 713.75 608.34 712.21C608.95 710.67 610.69 709.92 612.24 710.53C616.01 712.03 619.83 713.41 623.59 714.64C625.16 715.16 626.02 716.85 625.51 718.42C625.1 719.68 623.92 720.49 622.66 720.49L622.65 720.5ZM736.49 716.15C735.31 716.15 734.19 715.45 733.72 714.29C733.09 712.76 733.82 711 735.35 710.37C739.02 708.86 742.73 707.19 746.36 705.42C747.85 704.7 749.65 705.31 750.37 706.8C751.1 708.29 750.48 710.09 748.99 710.81C745.25 712.64 741.43 714.36 737.63 715.92C737.26 716.07 736.87 716.15 736.49 716.15ZM583.49 703.1C582.99 703.1 582.49 702.98 582.03 702.72C578.48 700.74 574.89 698.62 571.35 696.42C569.94 695.55 569.51 693.7 570.38 692.29C571.25 690.88 573.1 690.45 574.51 691.32C577.97 693.47 581.49 695.54 584.96 697.48C586.41 698.29 586.92 700.12 586.11 701.56C585.56 702.54 584.54 703.1 583.49 703.1ZM922.99 697.86C921.34 697.86 919.99 696.52 919.99 694.86C919.99 693.2 921.33 691.86 922.99 691.86C926.99 691.86 931.07 691.76 935.12 691.59C936.76 691.52 938.17 692.8 938.24 694.46C938.31 696.12 937.03 697.52 935.37 697.59C931.23 697.77 927.07 697.86 922.99 697.87V697.86ZM892.4 696.22C892.29 696.22 892.18 696.22 892.07 696.2C889.64 695.93 887.17 695.62 884.74 695.28C883.08 695.05 881.42 694.8 879.77 694.53C878.13 694.27 877.02 692.72 877.29 691.09C877.55 689.45 879.09 688.34 880.73 688.61C882.34 688.87 883.95 689.11 885.57 689.34C887.95 689.67 890.35 689.98 892.73 690.24C894.38 690.42 895.56 691.91 895.38 693.55C895.21 695.08 893.91 696.22 892.4 696.22ZM774.14 695.68C773.18 695.68 772.24 695.22 771.66 694.37C770.73 693 771.08 691.13 772.45 690.2C775.74 687.95 779.04 685.57 782.26 683.11C783.58 682.1 785.46 682.35 786.47 683.67C787.48 684.99 787.23 686.87 785.91 687.88C782.61 690.4 779.22 692.85 775.84 695.16C775.32 695.51 774.73 695.68 774.15 695.68H774.14ZM965.77 694.82C964.29 694.82 963.01 693.73 962.8 692.23C962.58 690.59 963.73 689.08 965.37 688.85C969.32 688.31 973.36 687.69 977.39 687.01C979.03 686.74 980.57 687.83 980.85 689.47C981.13 691.1 980.03 692.65 978.4 692.93C974.3 693.63 970.19 694.26 966.18 694.8C966.04 694.82 965.91 694.83 965.77 694.83V694.82ZM18.7898 694.43C18.3498 694.43 17.9098 694.33 17.4898 694.13C15.9998 693.41 15.3698 691.62 16.0898 690.12C17.8798 686.41 19.7398 682.7 21.6098 679.08C22.3698 677.61 24.1798 677.03 25.6498 677.8C27.1198 678.56 27.6998 680.37 26.9298 681.84C25.0798 685.41 23.2498 689.07 21.4898 692.73C20.9698 693.8 19.8998 694.43 18.7898 694.43ZM850.39 687.76C850.11 687.76 849.82 687.72 849.54 687.64C845.6 686.47 841.62 685.19 837.73 683.82C836.17 683.27 835.34 681.56 835.89 680C836.44 678.44 838.15 677.61 839.71 678.16C843.51 679.49 847.39 680.75 851.24 681.88C852.83 682.35 853.74 684.02 853.27 685.61C852.88 686.91 851.69 687.76 850.39 687.76ZM1007.91 686.72C1006.56 686.72 1005.33 685.8 1005 684.43C1004.61 682.82 1005.59 681.2 1007.2 680.8C1011.05 679.86 1015.02 678.84 1019 677.76C1020.6 677.33 1022.25 678.27 1022.68 679.87C1023.11 681.47 1022.17 683.12 1020.57 683.55C1016.54 684.64 1012.52 685.68 1008.62 686.63C1008.38 686.69 1008.14 686.72 1007.91 686.72ZM547.72 679.48C547.09 679.48 546.45 679.28 545.91 678.87C542.7 676.44 539.43 673.87 536.18 671.24C534.89 670.2 534.69 668.31 535.73 667.02C536.77 665.73 538.66 665.53 539.95 666.57C543.15 669.16 546.37 671.68 549.53 674.08C550.85 675.08 551.11 676.96 550.11 678.28C549.52 679.06 548.62 679.47 547.72 679.47V679.48ZM1049.15 674.84C1047.89 674.84 1046.71 674.04 1046.3 672.77C1045.79 671.19 1046.64 669.5 1048.22 668.99C1051.98 667.76 1055.87 666.45 1059.79 665.09C1061.36 664.55 1063.07 665.38 1063.61 666.94C1064.15 668.5 1063.32 670.21 1061.76 670.76C1057.81 672.13 1053.88 673.45 1050.09 674.69C1049.78 674.79 1049.47 674.84 1049.16 674.84H1049.15ZM810.48 672.09C810.03 672.09 809.58 671.99 809.15 671.78C805.46 669.95 801.76 668.01 798.17 666C796.72 665.19 796.2 663.37 797.01 661.92C797.82 660.47 799.64 659.95 801.09 660.76C802.47 661.53 803.87 662.29 805.27 663.04C808.06 660.27 810.82 657.41 813.48 654.51C814.6 653.29 816.5 653.21 817.72 654.33C818.94 655.45 819.02 657.35 817.9 658.57C815.62 661.06 813.26 663.53 810.87 665.93C811.18 666.09 811.5 666.24 811.81 666.4C813.3 667.14 813.9 668.94 813.17 670.42C812.65 671.48 811.58 672.09 810.48 672.09ZM1089.55 660.36C1088.34 660.36 1087.21 659.63 1086.75 658.44C1086.15 656.89 1086.92 655.16 1088.47 654.56C1092.28 653.09 1096.08 651.6 1099.86 650.1C1101.4 649.48 1103.14 650.24 1103.76 651.78C1104.37 653.32 1103.62 655.06 1102.08 655.68C1098.28 657.19 1094.46 658.69 1090.63 660.17C1090.28 660.31 1089.91 660.37 1089.55 660.37V660.36ZM39.3798 656.81C38.8398 656.81 38.2998 656.67 37.7998 656.36C36.3898 655.49 35.9598 653.64 36.8298 652.23C39.0098 648.71 41.2498 645.22 43.5098 641.84C44.4298 640.46 46.2898 640.09 47.6698 641.01C49.0498 641.93 49.4198 643.79 48.4998 645.17C46.2798 648.5 44.0698 651.94 41.9298 655.4C41.3598 656.32 40.3798 656.82 39.3798 656.82V656.81ZM514.89 651.84C514.17 651.84 513.44 651.58 512.87 651.05C509.99 648.42 507.04 645.68 503.85 642.69C502.64 641.56 502.58 639.66 503.72 638.45C504.85 637.24 506.75 637.18 507.96 638.32C511.13 641.3 514.06 644.01 516.92 646.63C518.14 647.75 518.23 649.64 517.11 650.87C516.52 651.52 515.71 651.85 514.89 651.85V651.84ZM773.83 649.86C773.22 649.86 772.6 649.67 772.06 649.28C768.73 646.85 765.42 644.31 762.22 641.72C760.93 640.68 760.73 638.79 761.77 637.5C762.81 636.21 764.7 636.01 765.99 637.05C769.12 639.58 772.35 642.06 775.6 644.43C776.94 645.41 777.23 647.28 776.26 648.62C775.67 649.43 774.76 649.85 773.83 649.85V649.86ZM1129.35 644.26C1128.18 644.26 1127.06 643.57 1126.58 642.42C1125.94 640.89 1126.66 639.13 1128.19 638.49C1131.95 636.91 1135.71 635.33 1139.47 633.73C1141 633.08 1142.76 633.79 1143.41 635.31C1144.06 636.83 1143.35 638.6 1141.83 639.25C1138.07 640.86 1134.29 642.45 1130.52 644.03C1130.14 644.19 1129.75 644.26 1129.36 644.26H1129.35ZM835.05 635.79C834.44 635.79 833.83 635.61 833.29 635.22C831.95 634.25 831.65 632.37 832.62 631.03C834.97 627.79 837.28 624.43 839.5 621.05C840.41 619.67 842.27 619.28 843.65 620.19C845.03 621.1 845.42 622.96 844.51 624.34C842.24 627.8 839.87 631.23 837.47 634.55C836.88 635.36 835.97 635.79 835.04 635.79H835.05ZM1168.75 627.25C1167.6 627.25 1166.5 626.59 1166.01 625.47C1165.34 623.96 1166.01 622.18 1167.53 621.51C1171.26 619.85 1174.98 618.18 1178.7 616.5C1180.21 615.82 1181.99 616.49 1182.67 618C1183.35 619.51 1182.68 621.29 1181.17 621.97C1177.44 623.66 1173.71 625.33 1169.96 626.99C1169.56 627.17 1169.15 627.25 1168.74 627.25H1168.75ZM483.75 622.31C483 622.31 482.25 622.03 481.67 621.47C478.73 618.63 475.79 615.8 472.84 612.97C471.64 611.82 471.6 609.92 472.75 608.73C473.9 607.53 475.8 607.5 476.99 608.64C479.94 611.47 482.89 614.31 485.83 617.15C487.02 618.3 487.06 620.2 485.91 621.39C485.32 622 484.54 622.31 483.75 622.31ZM64.0898 621.76C63.4298 621.76 62.7698 621.54 62.2098 621.1C60.9198 620.06 60.7098 618.17 61.7498 616.88C64.3298 613.67 66.9998 610.47 69.6798 607.38C70.7698 606.13 72.6598 605.99 73.9098 607.08C75.1598 608.16 75.2998 610.06 74.2098 611.31C71.5798 614.34 68.9598 617.48 66.4298 620.63C65.8398 621.37 64.9698 621.75 64.0898 621.75V621.76ZM741.52 621.68C740.73 621.68 739.95 621.37 739.36 620.76C736.49 617.78 733.68 614.69 730.99 611.59C729.91 610.34 730.04 608.44 731.29 607.36C732.54 606.28 734.44 606.41 735.52 607.66C738.14 610.69 740.89 613.7 743.68 616.6C744.83 617.79 744.79 619.69 743.6 620.84C743.02 621.4 742.27 621.68 741.52 621.68ZM1207.77 609.39C1206.64 609.39 1205.57 608.75 1205.05 607.67C1204.34 606.17 1204.99 604.38 1206.49 603.68C1210.18 601.94 1213.87 600.19 1217.55 598.43C1219.05 597.71 1220.84 598.35 1221.55 599.84C1222.26 601.33 1221.63 603.13 1220.14 603.84C1216.45 605.61 1212.75 607.36 1209.05 609.11C1208.64 609.3 1208.2 609.4 1207.77 609.4V609.39ZM857.36 599.19C856.9 599.19 856.44 599.09 856 598.86C854.52 598.11 853.93 596.31 854.68 594.83C856.5 591.24 858.27 587.57 859.93 583.9C860.61 582.39 862.39 581.72 863.9 582.41C865.41 583.09 866.08 584.87 865.39 586.38C863.69 590.13 861.88 593.89 860.02 597.55C859.49 598.59 858.44 599.19 857.34 599.19H857.36ZM452.53 592.86C451.81 592.86 451.09 592.6 450.52 592.08C447.41 589.26 444.34 586.54 441.39 583.98C440.14 582.89 440.01 581 441.09 579.75C442.18 578.5 444.07 578.37 445.32 579.45C448.29 582.03 451.4 584.78 454.54 587.63C455.77 588.74 455.86 590.64 454.75 591.87C454.16 592.52 453.34 592.86 452.52 592.86H452.53ZM1246.39 590.68C1245.29 590.68 1244.23 590.07 1243.7 589.02C1242.96 587.54 1243.57 585.74 1245.05 585C1248.7 583.18 1252.35 581.35 1255.99 579.51C1257.47 578.76 1259.27 579.35 1260.02 580.83C1260.77 582.31 1260.17 584.11 1258.7 584.86C1255.05 586.71 1251.39 588.54 1247.72 590.37C1247.29 590.58 1246.83 590.69 1246.39 590.69V590.68ZM93.1398 590.24C92.3398 590.24 91.5398 589.92 90.9498 589.3C89.8098 588.09 89.8698 586.19 91.0798 585.06C94.0898 582.23 97.1798 579.44 100.28 576.77C101.53 575.69 103.43 575.83 104.51 577.08C105.59 578.33 105.45 580.23 104.2 581.31C101.17 583.92 98.1398 586.66 95.1898 589.43C94.6098 589.97 93.8698 590.24 93.1298 590.24H93.1398ZM714.79 588.18C713.81 588.18 712.85 587.7 712.28 586.82C710.01 583.35 707.82 579.79 705.77 576.23C704.94 574.79 705.43 572.96 706.87 572.13C708.3 571.3 710.14 571.8 710.97 573.23C712.97 576.69 715.1 580.16 717.3 583.53C718.21 584.92 717.82 586.78 716.43 587.68C715.92 588.01 715.35 588.17 714.79 588.17V588.18ZM1284.6 571.14C1283.52 571.14 1282.48 570.56 1281.94 569.53C1281.17 568.06 1281.73 566.25 1283.2 565.48C1286.81 563.58 1290.42 561.67 1294.02 559.75C1295.49 558.97 1297.3 559.53 1298.08 560.99C1298.86 562.45 1298.31 564.27 1296.84 565.05C1293.23 566.98 1289.61 568.89 1285.99 570.79C1285.55 571.02 1285.07 571.13 1284.6 571.13V571.14ZM419.56 565.4C418.93 565.4 418.3 565.2 417.76 564.8C414.47 562.33 411.15 559.94 407.91 557.69C406.55 556.75 406.21 554.88 407.16 553.52C408.1 552.16 409.97 551.82 411.33 552.77C414.63 555.06 418 557.5 421.36 560.01C422.69 561 422.95 562.89 421.96 564.21C421.37 565 420.47 565.41 419.56 565.41V565.4ZM126.49 563.33C125.53 563.33 124.59 562.87 124.01 562.03C123.07 560.66 123.42 558.8 124.79 557.86C128.2 555.53 131.69 553.25 135.17 551.09C136.58 550.22 138.43 550.65 139.3 552.06C140.17 553.47 139.74 555.32 138.33 556.19C134.93 558.3 131.51 560.52 128.18 562.81C127.66 563.17 127.07 563.34 126.49 563.34V563.33ZM873.79 559.58C873.48 559.58 873.16 559.53 872.85 559.43C871.28 558.91 870.42 557.22 870.94 555.64C872.2 551.82 873.39 547.92 874.48 544.04C874.93 542.45 876.58 541.52 878.18 541.97C879.77 542.42 880.7 544.08 880.25 545.67C879.13 549.63 877.92 553.62 876.63 557.52C876.21 558.78 875.04 559.58 873.78 559.58H873.79ZM1322.37 550.76C1321.31 550.76 1320.29 550.2 1319.74 549.21C1318.94 547.76 1319.46 545.93 1320.91 545.13C1324.48 543.15 1328.04 541.17 1331.6 539.17C1333.04 538.35 1334.87 538.87 1335.68 540.32C1336.49 541.77 1335.98 543.59 1334.53 544.4C1330.96 546.4 1327.39 548.4 1323.81 550.38C1323.35 550.63 1322.85 550.76 1322.36 550.76H1322.37ZM694.99 550.17C693.8 550.17 692.67 549.46 692.2 548.28C690.66 544.44 689.22 540.52 687.91 536.61C687.38 535.04 688.23 533.34 689.8 532.81C691.38 532.28 693.07 533.13 693.6 534.7C694.88 538.5 696.28 542.32 697.78 546.05C698.4 547.59 697.65 549.34 696.11 549.95C695.74 550.1 695.37 550.17 695 550.17H694.99ZM383.32 542.52C382.87 542.52 382.42 542.42 381.99 542.21C378.43 540.45 374.73 538.75 371 537.17C369.47 536.52 368.76 534.76 369.41 533.24C370.06 531.72 371.82 531 373.34 531.65C377.18 533.28 380.98 535.02 384.64 536.84C386.13 537.57 386.73 539.37 386 540.86C385.48 541.92 384.41 542.53 383.31 542.53L383.32 542.52ZM163.7 542.06C162.57 542.06 161.49 541.42 160.98 540.33C160.28 538.83 160.93 537.04 162.43 536.34C166.16 534.6 169.98 532.93 173.79 531.37C175.32 530.74 177.08 531.48 177.7 533.01C178.32 534.54 177.59 536.3 176.06 536.92C172.34 538.44 168.61 540.08 164.96 541.78C164.55 541.97 164.12 542.06 163.69 542.06H163.7ZM1359.69 529.57C1358.66 529.57 1357.65 529.04 1357.1 528.08C1356.27 526.65 1356.75 524.81 1358.18 523.98C1361.71 521.93 1365.23 519.86 1368.74 517.79C1370.17 516.95 1372.01 517.42 1372.85 518.85C1373.69 520.28 1373.22 522.12 1371.79 522.96C1368.27 525.04 1364.74 527.11 1361.2 529.17C1360.72 529.45 1360.2 529.58 1359.69 529.58V529.57ZM343.25 527.33C342.98 527.33 342.71 527.29 342.44 527.22C338.58 526.15 334.63 525.15 330.69 524.26C329.07 523.89 328.06 522.29 328.43 520.67C328.8 519.05 330.4 518.04 332.02 518.41C336.05 519.32 340.1 520.34 344.05 521.44C345.65 521.88 346.58 523.54 346.14 525.13C345.77 526.46 344.56 527.33 343.25 527.33ZM203.92 527.25C202.6 527.25 201.4 526.38 201.03 525.05C200.59 523.45 201.53 521.8 203.12 521.36C207.08 520.27 211.12 519.25 215.15 518.35C216.76 517.99 218.37 519 218.74 520.62C219.1 522.24 218.09 523.84 216.47 524.21C212.54 525.1 208.58 526.09 204.72 527.15C204.45 527.22 204.18 527.26 203.92 527.26V527.25ZM301.13 519.35C301.02 519.35 300.92 519.35 300.81 519.33C296.81 518.91 292.75 518.58 288.73 518.34C287.08 518.24 285.81 516.82 285.91 515.17C286.01 513.52 287.43 512.27 289.08 512.35C293.19 512.59 297.35 512.93 301.44 513.36C303.09 513.53 304.28 515.01 304.11 516.66C303.95 518.2 302.65 519.35 301.13 519.35ZM246.04 519.31C244.52 519.31 243.22 518.16 243.06 516.62C242.89 514.97 244.09 513.5 245.73 513.33C249.83 512.9 253.98 512.57 258.09 512.33C259.74 512.25 261.16 513.5 261.26 515.15C261.36 516.8 260.09 518.22 258.44 518.32C254.43 518.55 250.36 518.88 246.36 519.29C246.25 519.3 246.15 519.31 246.05 519.31H246.04ZM884.1 517.95C883.93 517.95 883.77 517.94 883.6 517.91C881.97 517.63 880.87 516.08 881.14 514.45C881.81 510.48 882.41 506.45 882.91 502.45C883.12 500.81 884.62 499.65 886.26 499.85C887.9 500.06 889.07 501.56 888.86 503.2C888.35 507.28 887.74 511.41 887.05 515.46C886.8 516.92 885.53 517.96 884.1 517.96V517.95ZM683 509.03C681.59 509.03 680.33 508.03 680.06 506.59C679.29 502.54 678.62 498.41 678.07 494.33C677.85 492.69 679 491.18 680.64 490.96C682.29 490.75 683.79 491.89 684.01 493.53C684.54 497.51 685.19 501.53 685.94 505.47C686.25 507.1 685.18 508.67 683.55 508.98C683.36 509.02 683.17 509.03 682.99 509.03H683ZM1396.54 507.57C1395.53 507.57 1394.54 507.06 1393.98 506.14C1393.11 504.73 1393.56 502.88 1394.97 502.02C1398.45 499.89 1401.92 497.75 1405.39 495.6C1406.8 494.73 1408.65 495.16 1409.52 496.57C1410.39 497.98 1409.96 499.83 1408.55 500.7C1405.07 502.86 1401.59 505.01 1398.1 507.14C1397.61 507.44 1397.07 507.58 1396.54 507.58V507.57ZM1432.89 484.76C1431.9 484.76 1430.94 484.27 1430.36 483.38C1429.46 481.99 1429.87 480.13 1431.26 479.23C1434.69 477.02 1438.12 474.81 1441.54 472.58C1442.93 471.68 1444.79 472.07 1445.69 473.46C1446.59 474.85 1446.2 476.71 1444.81 477.61C1441.38 479.84 1437.94 482.07 1434.5 484.28C1434 484.6 1433.44 484.76 1432.88 484.76H1432.89ZM888.05 475.26C888.05 475.26 888.01 475.26 888 475.26C886.34 475.23 885.02 473.87 885.05 472.21C885.08 470.64 885.09 469.06 885.09 467.49C885.09 465.03 885.06 462.54 884.99 460.08C884.95 458.42 886.25 457.04 887.91 457C889.59 456.93 890.94 458.26 890.99 459.92C891.06 462.43 891.09 464.97 891.09 467.49C891.09 469.1 891.08 470.71 891.05 472.32C891.02 473.96 889.68 475.27 888.05 475.27V475.26ZM679 466.36C677.34 466.36 676 465.02 676 463.36C676 459.24 676.11 455.06 676.33 450.94C676.42 449.28 677.86 448.02 679.49 448.1C681.14 448.19 682.41 449.6 682.33 451.26C682.12 455.27 682.01 459.34 682.01 463.36C682.01 465.02 680.67 466.36 679.01 466.36H679ZM1468.73 461.15C1467.77 461.15 1466.82 460.69 1466.24 459.83C1465.31 458.46 1465.68 456.59 1467.05 455.66C1470.43 453.38 1473.81 451.09 1477.18 448.78C1478.55 447.85 1480.42 448.2 1481.35 449.56C1482.29 450.93 1481.93 452.79 1480.57 453.73C1477.19 456.04 1473.81 458.34 1470.41 460.63C1469.9 460.98 1469.31 461.14 1468.74 461.14L1468.73 461.15ZM1504.04 436.76C1503.1 436.76 1502.17 436.32 1501.59 435.49C1500.63 434.14 1500.95 432.26 1502.31 431.31C1505.64 428.95 1508.97 426.59 1512.28 424.21C1513.63 423.25 1515.5 423.55 1516.47 424.9C1517.44 426.25 1517.13 428.12 1515.78 429.09C1512.45 431.47 1509.12 433.85 1505.78 436.21C1505.25 436.58 1504.65 436.76 1504.05 436.76H1504.04ZM885.48 432.46C884.01 432.46 882.72 431.37 882.51 429.87C881.95 425.87 881.3 421.84 880.58 417.9C880.28 416.27 881.36 414.71 882.99 414.4C884.61 414.1 886.18 415.17 886.49 416.81C887.23 420.84 887.9 424.95 888.47 429.05C888.7 430.69 887.55 432.21 885.91 432.43C885.77 432.45 885.63 432.46 885.49 432.46H885.48ZM683.01 423.69C682.82 423.69 682.64 423.67 682.45 423.64C680.82 423.33 679.75 421.76 680.06 420.13C680.83 416.07 681.72 411.99 682.7 407.99C683.1 406.38 684.72 405.39 686.33 405.79C687.94 406.19 688.92 407.81 688.53 409.42C687.57 413.31 686.71 417.29 685.96 421.24C685.69 422.68 684.43 423.68 683.02 423.68L683.01 423.69ZM876.24 390.59C874.96 390.59 873.77 389.76 873.37 388.47C872.18 384.61 870.89 380.74 869.54 376.97C868.98 375.41 869.79 373.69 871.35 373.13C872.91 372.57 874.63 373.38 875.19 374.94C876.58 378.79 877.9 382.75 879.11 386.71C879.6 388.29 878.71 389.97 877.12 390.46C876.83 390.55 876.53 390.59 876.24 390.59ZM694.95 382.53C694.58 382.53 694.2 382.46 693.84 382.32C692.3 381.71 691.55 379.96 692.16 378.42C693.69 374.58 695.34 370.74 697.08 367.01C697.78 365.51 699.56 364.86 701.07 365.55C702.57 366.25 703.22 368.03 702.53 369.54C700.84 373.17 699.23 376.91 697.74 380.64C697.27 381.81 696.14 382.53 694.95 382.53ZM860.08 350.89C859.01 350.89 857.98 350.32 857.44 349.32C855.5 345.73 853.44 342.24 851.32 338.97C850.42 337.58 850.81 335.72 852.2 334.82C853.59 333.92 855.45 334.31 856.35 335.7C858.56 339.11 860.7 342.73 862.72 346.46C863.51 347.92 862.96 349.74 861.51 350.53C861.06 350.78 860.57 350.89 860.09 350.89H860.08ZM714.83 344.59C714.24 344.59 713.65 344.42 713.12 344.06C711.76 343.12 711.42 341.25 712.36 339.89C714.75 336.44 717.29 333.08 719.9 329.91C720.95 328.63 722.84 328.45 724.12 329.5C725.4 330.55 725.58 332.44 724.53 333.72C722.02 336.76 719.58 339.99 717.29 343.3C716.71 344.14 715.77 344.59 714.82 344.59H714.83ZM834.16 316.93C833.45 316.93 832.74 316.68 832.16 316.17C829.14 313.48 826 311.05 822.82 308.95C821.44 308.04 821.05 306.18 821.97 304.79C822.88 303.41 824.74 303.02 826.13 303.94C829.55 306.2 832.93 308.81 836.17 311.7C837.41 312.8 837.51 314.7 836.41 315.94C835.82 316.6 835 316.94 834.17 316.94L834.16 316.93ZM744.37 313.7C743.44 313.7 742.53 313.27 741.94 312.46C740.97 311.12 741.26 309.24 742.61 308.27C746.11 305.73 749.7 303.46 753.3 301.51C754.76 300.72 756.58 301.26 757.37 302.72C758.16 304.18 757.62 306 756.16 306.79C752.79 308.61 749.42 310.75 746.14 313.13C745.61 313.52 744.99 313.7 744.38 313.7H744.37ZM796.07 298.69C795.94 298.69 795.82 298.69 795.69 298.67C795.4 298.63 795.12 298.6 794.83 298.57C791.25 298.17 787.62 298.09 784.04 298.34C782.38 298.44 780.96 297.21 780.84 295.55C780.73 293.9 781.97 292.47 783.63 292.35C787.57 292.08 791.57 292.16 795.5 292.6C795.82 292.64 796.13 292.67 796.45 292.71C798.09 292.92 799.26 294.42 799.05 296.06C798.86 297.58 797.57 298.68 796.08 298.68L796.07 298.69Z" fill="#383838"/>
</g>
<defs>
<clipPath id="clip0_19_171">
<rect width="1961.66" height="731.01" fill="white"/>
</clipPath>
</defs>
</svg>
