<svg width="94" height="82" viewBox="0 0 94 82" fill="none" xmlns="http://www.w3.org/2000/svg">
<path fill-rule="evenodd" clip-rule="evenodd" d="M5.26039 44.9672C-4.27597 46.3771 2.40226 69.5476 12.2944 65.4535C12.8786 62.9801 11.9699 60.2047 14.3918 58.6107C17.3097 56.6902 19.4937 59.1182 20.6305 61.9459C23.1365 68.1839 25.482 75.4331 27.6892 81.8498C32.6631 80.0832 37.6051 78.1872 42.5627 76.3701C47.139 74.6925 54.6558 73.1174 50.6181 67.9343C48.8176 66.503 46.553 66.8846 44.4798 66.6629C41.9068 61.3869 46.7799 57.4369 51.9573 55.7227C56.8686 54.0963 63.7315 53.3282 65.1019 59.0964C63.2854 63.0495 59.8065 61.2645 62.0927 67.4489C64.7798 68.2965 64.0749 68.7431 67.5523 67.651C71.5484 66.395 85.2092 61.6752 87.5186 60.2198C85.1461 53.9466 82.8676 47.4286 80.6579 41.0885C79.5421 37.8853 79.0295 34.9424 82.5298 34.1465C85.6198 33.4442 86.7536 36.53 88.9987 37.9893C98.3725 35.8964 91.421 12.8479 81.6365 17.6094C80.743 21.8951 82.7905 23.5305 77.2012 25.0079C73.1385 22.7852 72.9244 19.3661 71.0903 14.2226C69.5168 9.80993 67.9706 5.37514 66.3639 0.977802C61.482 1.97588 51.7859 5.86983 46.749 7.7856C43.972 8.84271 41.3646 10.7457 43.0666 13.7961C44.5872 16.5205 47.5005 15.1596 50.2344 16.3407C52.0182 21.5655 47.2141 24.9682 42.1663 26.74C39.4959 27.6764 36.7619 28.0248 34.4434 27.8061C31.5963 27.5365 30.1125 26.6822 29.0403 23.1819C30.7735 21.4234 33.6055 19.8099 32.8706 16.9937C31.8303 13.0051 28.6234 14.1944 25.6571 15.2785C19.313 17.5953 12.9262 19.8568 6.55547 22.1039C9.67406 35.1635 18.3294 46.643 11.5738 48.6155C8.2325 49.5905 7.52408 46.6117 5.25525 44.9726L5.26039 44.9672Z" fill="#C4C6ED" fill-opacity="0.2"/>
</svg>
