<svg width="80" height="71" viewBox="0 0 80 71" fill="none" xmlns="http://www.w3.org/2000/svg">
<path fill-rule="evenodd" clip-rule="evenodd" d="M4.14062 38.5981C-4.04987 39.809 1.68586 59.7095 10.182 56.1932C10.6836 54.0688 9.90324 51.6851 11.9833 50.3161C14.4894 48.6666 16.3652 50.7519 17.3416 53.1806C19.4939 58.5382 21.5084 64.7643 23.404 70.2754C27.676 68.7581 31.9205 67.1297 36.1785 65.5691C40.1089 64.1283 46.5649 62.7755 43.097 58.3238C41.5507 57.0945 39.6056 57.4223 37.8251 57.2319C35.6152 52.7005 39.8005 49.3079 44.2472 47.8356C48.4654 46.4388 54.3597 45.7791 55.5368 50.7332C53.9766 54.1284 50.9887 52.5953 52.9522 57.9069C55.2601 58.6349 54.6547 59.0185 57.6413 58.0805C61.0735 57.0018 72.8063 52.948 74.7898 51.6981C72.7521 46.3102 70.7952 40.7121 68.8973 35.2667C67.939 32.5157 67.4987 29.988 70.505 29.3045C73.159 28.7013 74.1327 31.3516 76.061 32.6049C84.1119 30.8074 78.1414 11.0118 69.7379 15.1013C68.9704 18.7821 70.7289 20.1867 65.9285 21.4556C62.4392 19.5466 62.2552 16.61 60.68 12.1925C59.3286 8.40252 58.0006 4.59361 56.6206 0.816863C52.4277 1.67409 44.1 5.01848 39.774 6.66388C37.3889 7.5718 35.1495 9.20625 36.6113 11.8262C37.9173 14.166 40.4194 12.9972 42.7675 14.0116C44.2996 18.499 40.1734 21.4215 35.8381 22.9433C33.5445 23.7475 31.1963 24.0467 29.205 23.8589C26.7598 23.6273 25.4854 22.8936 24.5645 19.8873C26.053 18.377 28.4854 16.9912 27.8542 14.5724C26.9607 11.1468 24.2064 12.1682 21.6588 13.0993C16.21 15.0892 10.7246 17.0315 5.25293 18.9614C7.9314 30.1779 15.3652 40.0374 9.56305 41.7315C6.69329 42.5689 6.08484 40.0105 4.13621 38.6027L4.14062 38.5981Z" fill="white"/>
</svg>
