<svg width="48" height="40" viewBox="0 0 48 40" fill="none" xmlns="http://www.w3.org/2000/svg">
<path d="M15.095 39.5013C33.2083 39.5013 43.1155 24.4946 43.1155 11.4808C43.1155 11.0546 43.1155 10.6302 43.0867 10.2078C45.0141 8.81375 46.6778 7.08761 48 5.11024C46.2028 5.90704 44.2961 6.42935 42.3437 6.65968C44.3996 5.42905 45.9383 3.49324 46.6733 1.21264C44.7402 2.35985 42.6253 3.16829 40.4198 3.60304C38.935 2.02419 36.9712 0.978719 34.8324 0.628405C32.6935 0.278091 30.4988 0.642465 28.5879 1.66514C26.677 2.68782 25.1564 4.31178 24.2615 6.28573C23.3665 8.25968 23.1471 10.4736 23.6371 12.5848C19.7218 12.3884 15.8915 11.3709 12.3949 9.59825C8.89831 7.82563 5.81353 5.33756 3.3408 2.29552C2.08146 4.46351 1.69574 7.02997 2.2622 9.47236C2.82865 11.9147 4.30468 14.0494 6.38976 15.4418C4.82246 15.3958 3.2893 14.973 1.92 14.2091V14.3339C1.92062 16.6076 2.7077 18.8111 4.14774 20.5707C5.58778 22.3302 7.59212 23.5375 9.8208 23.9877C8.37096 24.3832 6.84975 24.441 5.37408 24.1566C6.00363 26.1133 7.22886 27.8243 8.87848 29.0505C10.5281 30.2767 12.5197 30.9568 14.5747 30.9957C12.5329 32.6006 10.1946 33.7873 7.69375 34.4877C5.19287 35.1881 2.57843 35.3886 0 35.0776C4.50367 37.9676 9.74385 39.5006 15.095 39.4936" fill="#1DA1F2"/>
</svg>
